<?xml version="1.0" standalone="no"?>
<!DOCTYPE svg PUBLIC "-//W3C//DTD SVG 20010904//EN"
 "http://www.w3.org/TR/2001/REC-SVG-20010904/DTD/svg10.dtd">
<svg version="1.0" xmlns="http://www.w3.org/2000/svg"
 width="335.000000pt" height="151.000000pt" viewBox="0 0 335.000000 151.000000"
 preserveAspectRatio="xMidYMid meet">

<g transform="translate(0.000000,151.000000) scale(0.100000,-0.100000)"
fill="#000000" stroke="none">
<path d="M1531 923 c-14 -12 -18 -22 -12 -32 7 -11 13 -9 30 8 37 37 22 57
-18 24z"/>
<path d="M1576 924 c-3 -9 -6 -18 -6 -20 0 -2 23 -4 50 -4 43 0 50 3 50 20 0
17 -7 20 -44 20 -31 0 -46 -5 -50 -16z"/>
<path d="M1680 921 c0 -24 15 -29 61 -24 30 4 36 8 32 24 -4 15 -14 19 -49 19
-37 0 -44 -3 -44 -19z"/>
<path d="M1784 924 c3 -9 6 -19 6 -24 0 -4 9 -10 20 -13 18 -5 24 2 18 21 -2
4 -7 6 -11 4 -4 -1 -10 5 -13 13 -4 8 -11 15 -16 15 -6 0 -7 -7 -4 -16z"/>
<path d="M1418 703 c7 -3 16 -2 19 1 4 3 -2 6 -13 5 -11 0 -14 -3 -6 -6z"/>
<path d="M680 674 c15 -17 30 -18 30 -1 0 7 -9 13 -21 14 -17 2 -18 -1 -9 -13z"/>
<path d="M778 683 c6 -2 18 -2 25 0 6 3 1 5 -13 5 -14 0 -19 -2 -12 -5z"/>
<path d="M2543 683 c9 -2 23 -2 30 0 6 3 -1 5 -18 5 -16 0 -22 -2 -12 -5z"/>
<path d="M2640 675 c0 -17 2 -18 24 -9 23 9 20 24 -4 24 -11 0 -20 -7 -20 -15z"/>
<path d="M920 673 c19 -3 39 -11 43 -19 11 -19 20 -18 33 4 10 15 5 17 -50 18
-34 1 -45 -1 -26 -3z"/>
<path d="M1020 671 c0 -13 106 -15 114 -3 3 5 -22 10 -54 11 -37 1 -60 -2 -60
-8z"/>
<path d="M2222 668 c2 -5 7 -9 11 -9 4 1 27 1 52 1 25 0 45 4 45 9 0 5 -25 9
-55 9 -31 0 -54 -5 -53 -10z"/>
<path d="M2353 659 c13 -22 31 -20 35 3 2 11 -5 16 -22 16 -22 0 -23 -3 -13
-19z"/>
<path d="M2413 673 c9 -2 25 -2 35 0 9 3 1 5 -18 5 -19 0 -27 -2 -17 -5z"/>
<path d="M1170 655 c-14 -17 -9 -18 46 -15 22 1 33 -4 38 -16 5 -13 9 -15 18
-6 16 16 57 15 64 -1 2 -7 3 -60 2 -118 -3 -94 -4 -101 -16 -75 -16 38 -29 24
-34 -36 l-3 -48 63 0 c54 0 63 2 58 16 -3 9 -6 31 -6 50 0 24 -5 34 -15 34 -8
0 -15 -6 -15 -14 0 -8 -4 -17 -9 -21 -6 -3 -10 36 -10 99 0 58 3 107 7 110 4
2 37 -2 72 -9 36 -7 66 -12 68 -11 1 2 -5 12 -15 24 -14 16 -34 22 -93 27 -41
3 -93 10 -115 15 -58 14 -91 12 -105 -5z m198 -288 c3 -12 -3 -17 -22 -17 -25
0 -35 18 -19 34 12 12 38 2 41 -17z"/>
<path d="M2065 658 c-22 -5 -72 -12 -112 -15 -53 -4 -76 -10 -89 -24 -9 -11
-15 -21 -13 -24 3 -2 33 2 68 10 34 9 67 13 72 9 5 -3 9 -30 9 -60 0 -42 -3
-53 -12 -48 -10 6 -10 4 0 -8 8 -10 12 -34 10 -60 l-4 -43 -12 29 c-16 37 -28
24 -35 -36 l-5 -48 59 0 59 0 0 50 c0 55 -18 68 -38 28 -9 -18 -11 2 -9 92 2
112 3 115 25 118 13 2 29 -1 36 -7 10 -8 17 -7 26 4 8 9 25 15 39 15 49 -4 55
-2 41 15 -14 17 -54 18 -115 3z m-45 -272 c0 -2 3 -11 6 -20 5 -12 0 -16 -20
-16 -24 0 -35 18 -19 33 7 8 33 10 33 3z"/>
<path d="M1082 604 c-49 -34 -15 -124 46 -124 62 0 91 63 52 113 -25 31 -63
36 -98 11z"/>
<path d="M2176 604 c-32 -32 -28 -92 8 -116 21 -14 66 -8 86 12 28 28 27 84
-2 104 -29 20 -72 20 -92 0z"/>
<path d="M1650 541 c0 -5 4 -11 10 -13 5 -1 11 -22 12 -46 1 -23 4 -40 7 -37
3 3 4 22 3 41 -2 20 2 42 9 50 9 11 7 14 -15 14 -14 0 -26 -4 -26 -9z"/>
<path d="M1084 465 c23 -17 86 -20 86 -4 0 7 -10 9 -24 5 -14 -3 -37 -1 -53 4
-26 9 -27 9 -9 -5z"/>
<path d="M2170 465 c16 -19 71 -19 96 0 18 14 17 14 -10 5 -20 -8 -39 -8 -59
0 -39 13 -42 13 -27 -5z"/>
<path d="M1630 375 l0 -45 57 0 c44 0 54 3 45 12 -7 7 -12 27 -12 45 0 18 -4
33 -10 33 -5 0 -10 -6 -10 -14 0 -8 -10 -13 -25 -13 -15 0 -25 5 -25 13 0 8
-4 14 -10 14 -5 0 -10 -20 -10 -45z m60 -15 c0 -11 -7 -20 -15 -20 -8 0 -15 9
-15 20 0 11 7 20 15 20 8 0 15 -9 15 -20z"/>
</g>
</svg>
